TITLE ""
FILE "Step2_Track44.mp3" MP3
  TRACK 01 AUDIO
    TITLE "Step2_Track44_01"
    INDEX 01 00:00:00
  TRACK 02 AUDIO
    TITLE "Step2_Track44_02"
    INDEX 01 00:00:22
  TRACK 03 AUDIO
    TITLE "Step2_Track44_03"
    INDEX 01 00:01:74
  TRACK 04 AUDIO
    TITLE "Step2_Track44_04"
    INDEX 01 00:02:50
  TRACK 05 AUDIO
    TITLE "Step2_Track44_05"
    INDEX 01 00:03:50
  TRACK 06 AUDIO
    TITLE "Step2_Track44_06"
    INDEX 01 00:04:00
  TRACK 07 AUDIO
    TITLE "Step2_Track44_07"
    INDEX 01 00:06:31
  TRACK 08 AUDIO
    TITLE "Step2_Track44_08"
    INDEX 01 00:06:54
  TRACK 09 AUDIO
    TITLE "Step2_Track44_09"
    INDEX 01 00:07:50
  TRACK 10 AUDIO
    TITLE "Step2_Track44_10"
    INDEX 01 00:07:51
  TRACK 11 AUDIO
    TITLE "Step2_Track44_11"
    INDEX 01 00:10:19
  TRACK 12 AUDIO
    TITLE "Step2_Track44_12"
    INDEX 01 00:10:30
  TRACK 13 AUDIO
    TITLE "Step2_Track44_13"
    INDEX 01 00:11:26
  TRACK 14 AUDIO
    TITLE "Step2_Track44_14"
    INDEX 01 00:11:34
  TRACK 15 AUDIO
    TITLE "Step2_Track44_15"
    INDEX 01 00:14:32
  TRACK 16 AUDIO
    TITLE "Step2_Track44_16"
    INDEX 01 00:14:44
  TRACK 17 AUDIO
    TITLE "Step2_Track44_17"
    INDEX 01 00:15:39
  TRACK 18 AUDIO
    TITLE "Step2_Track44_18"
    INDEX 01 00:15:41
  TRACK 19 AUDIO
    TITLE "Step2_Track44_19"
    INDEX 01 00:18:22
  TRACK 20 AUDIO
    TITLE "Step2_Track44_20"
    INDEX 01 00:18:43
  TRACK 21 AUDIO
    TITLE "Step2_Track44_21"
    INDEX 01 00:19:35
  TRACK 22 AUDIO
    TITLE "Step2_Track44_22"
    INDEX 01 00:19:45
  TRACK 23 AUDIO
    TITLE "Step2_Track44_23"
    INDEX 01 00:22:16
  TRACK 24 AUDIO
    TITLE "Step2_Track44_24"
    INDEX 01 00:22:28
  TRACK 25 AUDIO
    TITLE "Step2_Track44_25"
    INDEX 01 00:23:31
  TRACK 26 AUDIO
    TITLE "Step2_Track44_26"
    INDEX 01 00:23:49
  TRACK 27 AUDIO
    TITLE "Step2_Track44_27"
    INDEX 01 00:26:41
  TRACK 28 AUDIO
    TITLE "Step2_Track44_28"
    INDEX 01 00:26:74
  TRACK 29 AUDIO
    TITLE "Step2_Track44_29"
    INDEX 01 00:28:05
  TRACK 30 AUDIO
    TITLE "Step2_Track44_30"
    INDEX 01 00:28:07
  TRACK 31 AUDIO
    TITLE "Step2_Track44_31"
    INDEX 01 00:30:56
  TRACK 32 AUDIO
    TITLE "Step2_Track44_32"
    INDEX 01 00:31:01
  TRACK 33 AUDIO
    TITLE "Step2_Track44_33"
    INDEX 01 00:31:56
  TRACK 34 AUDIO
    TITLE "Step2_Track44_34"
    INDEX 01 00:32:02
  TRACK 35 AUDIO
    TITLE "Step2_Track44_35"
    INDEX 01 00:33:74
  TRACK 36 AUDIO
    TITLE "Step2_Track44_36"
    INDEX 01 00:34:46
  TRACK 37 AUDIO
    TITLE "Step2_Track44_37"
    INDEX 01 00:35:46
  TRACK 38 AUDIO
    TITLE "Step2_Track44_38"
    INDEX 01 00:35:60
  TRACK 39 AUDIO
    TITLE "Step2_Track44_39"
    INDEX 01 00:38:62
  TRACK 40 AUDIO
    TITLE "Step2_Track44_40"
    INDEX 01 00:39:12
  TRACK 41 AUDIO
    TITLE "Step2_Track44_41"
    INDEX 01 00:40:08
  TRACK 42 AUDIO
    TITLE "Step2_Track44_42"
    INDEX 01 00:40:24
  TRACK 43 AUDIO
    TITLE "Step2_Track44_43"
    INDEX 01 00:42:60
